<svg width="45" height="45" viewBox="0 0 45 45" fill="none" xmlns="http://www.w3.org/2000/svg">
<path d="M1.00004 21.5005H4.511C7.13865 21.5005 9.29949 23.7742 9.33683 26.4117L9.33693 26.4188C9.34177 27.1076 9.21039 27.7906 8.9503 28.4284C8.69025 29.0662 8.30666 29.6463 7.82161 30.1352L1.00004 21.5005ZM1.00004 21.5005L1.00005 13.5268L1.00003 13.5229C0.997673 12.9269 1.11637 12.3367 1.34893 11.788C1.5815 11.2393 1.92307 10.7436 2.35296 10.3309L2.35463 10.3292C3.22051 9.49404 4.37843 9.03016 5.58147 9.03653V9.03655H5.58676H11.9389H12.9389V8.03655V6.58211C12.9389 5.84082 13.0865 5.10694 13.3732 4.42333C13.6599 3.73971 14.0799 3.12004 14.6086 2.60048C15.1374 2.08092 15.7643 1.67189 16.4529 1.39724C17.1414 1.1226 17.8778 0.987851 18.6189 1.00086L18.619 1.00086C21.6265 1.0534 24.1011 3.58604 24.1011 6.66348V8.03655V9.03655H25.1011H31.4532V9.0366L31.4639 9.03649C32.0566 9.03012 32.6446 9.14216 33.1934 9.36604C33.7422 9.58991 34.2408 9.92111 34.6599 10.3402C35.079 10.7593 35.4102 11.2579 35.6341 11.8067C35.858 12.3555 35.97 12.9435 35.9636 13.5362L35.9636 13.5362V13.5469V19.899V20.899H36.9636H38.3356C41.4822 20.899 43.9991 23.3885 43.9991 26.3917C43.9991 29.5294 41.4822 32.0612 38.418 32.0612H36.9636H35.9636V33.0612V39.4133C35.9636 41.9546 33.9264 44 31.4532 44H23.4996V40.4101V40.4087H22.4996M1.00004 21.5005L18.453 35.9645M22.4996 40.4087C22.501 39.9841 22.4163 39.5636 22.2508 39.1726C22.0852 38.7816 21.8422 38.4282 21.5363 38.1336M22.4996 40.4087V44V40.4087ZM21.5363 38.1336L22.2383 37.4214C22.237 37.4201 22.2356 37.4188 22.2342 37.4174C22.2328 37.4161 22.2314 37.4147 22.2299 37.4133L21.5363 38.1336ZM21.5363 38.1336C20.7659 37.3743 19.645 36.9474 18.4657 36.9645M18.4657 36.9645L18.4563 35.9645C18.4552 35.9645 18.4541 35.9645 18.453 35.9645M18.4657 36.9645C17.4168 36.9743 16.4049 37.3538 15.6081 38.0362M18.4657 36.9645L18.4513 35.9646C18.4518 35.9646 18.4524 35.9645 18.453 35.9645M18.453 35.9645L15.6081 38.0362M15.6081 38.0362C15.0858 38.4982 14.464 39.2978 14.464 40.4891V44L15.6081 38.0362ZM31.4532 45H23.4996L10.9389 8.03655H11.9389V7.03655V6.58211C11.9389 5.70802 12.113 4.84268 12.451 4.03659C12.789 3.23051 13.2843 2.49983 13.9077 1.8872C14.5312 1.27456 15.2705 0.792251 16.0824 0.468407C16.8943 0.144563 17.7625 -0.014326 18.6365 0.00101371C22.2013 0.0632891 25.1011 3.05251 25.1011 6.66348V7.03655V8.03655H26.1011H31.4532C32.179 8.02875 32.899 8.16595 33.5711 8.44011C34.2432 8.71427 34.8538 9.11987 35.367 9.63312C35.8802 10.1464 36.2858 10.7569 36.56 11.429C36.8342 12.1011 36.9714 12.8211 36.9636 13.5469V18.899V19.899H37.9636H38.3356C42.0099 19.899 44.9991 22.8119 44.9991 26.3917C44.9991 30.069 42.0471 33.0612 38.418 33.0612H37.9636H36.9636V34.0612V39.4133C36.9636 42.4939 34.4916 45 31.4532 45Z" stroke="#70E61C" stroke-width="2"/>
</svg>
