<svg width="55" height="55" viewBox="0 0 55 55" fill="none" xmlns="http://www.w3.org/2000/svg">
    <path
        d="M1.60006 26.4005H6.01321C9.04966 26.4005 11.5608 29.0336 11.6042 32.0968L11.6043 32.1039C11.61 32.9041 11.4573 33.6975 11.1552 34.4385C10.8531 35.1794 10.4074 35.8533 9.84392 36.4214L1.60006 26.4005ZM1.60006 26.4005L1.60006 16.6321L1.60005 16.6281C1.59711 15.8859 1.74494 15.1508 2.03458 14.4675C2.32423 13.7841 2.74964 13.1667 3.28504 12.6527L3.28671 12.651C4.36332 11.6126 5.80302 11.0358 7.29882 11.0437V11.0438H7.30412H14.9266H15.9266V10.0438V8.29844C15.9266 7.38232 16.1091 6.47538 16.4634 5.63055C16.8177 4.78571 17.3367 4.01991 17.9902 3.37782C18.6436 2.73574 19.4184 2.23024 20.2693 1.89083C21.1203 1.55141 22.0303 1.38489 22.9462 1.40096L22.9463 1.40097C26.6668 1.46596 29.7213 4.59644 29.7213 8.39607V10.0438V11.0438H30.7213L38.3438 11.0438L38.3546 11.0437C39.0924 11.0358 39.8244 11.1753 40.5076 11.454C41.1909 11.7327 41.8115 12.145 42.3333 12.6668C42.8551 13.1885 43.2674 13.8092 43.5461 14.4924C43.8248 15.1756 43.9643 15.9076 43.9564 16.6455H43.9563V16.6562V24.2787V25.2787H44.9563H46.6028C50.4842 25.2787 53.599 28.3507 53.599 32.07C53.599 35.9431 50.4916 39.0734 46.7016 39.0734H44.9563H43.9563V40.0734V47.6959C43.9563 50.8533 41.4248 53.3999 38.3438 53.3999H28.5995V48.8924V48.8903H27.5995M1.60006 26.4005L22.7469 43.7573M27.5995 48.8903C27.6012 48.3808 27.4996 47.8762 27.301 47.407C27.1023 46.9378 26.8106 46.5137 26.4436 46.1603M27.5995 48.8903V53.3999V48.8903ZM26.4436 46.1603L27.1456 45.4481C27.1441 45.4467 27.1427 45.4453 27.1413 45.4439C27.1399 45.4425 27.1386 45.4412 27.1372 45.4399L26.4436 46.1603ZM26.4436 46.1603C25.5191 45.249 24.174 44.7368 22.7589 44.7573M22.7589 44.7573L22.7495 43.7573C22.7486 43.7573 22.7478 43.7573 22.7469 43.7573M22.7589 44.7573C21.5001 44.7691 20.2858 45.2245 19.3297 46.0434M22.7589 44.7573L22.7444 43.7574C22.7453 43.7574 22.7461 43.7573 22.7469 43.7573M22.7469 43.7573L19.3297 46.0434M19.3297 46.0434C18.7029 46.5978 17.9568 47.5572 17.9568 48.9868V53.3999L19.3297 46.0434ZM38.3438 54.3999H28.5995L13.9266 10.0438H14.9266V9.04376V8.29844C14.9266 7.24953 15.1356 6.21112 15.5412 5.24381C15.9469 4.27651 16.5411 3.3997 17.2893 2.66454C18.0375 1.92938 18.9246 1.3506 19.8989 0.961991C20.8731 0.573378 21.915 0.382711 22.9638 0.401119C27.2415 0.475849 30.7213 4.06291 30.7213 8.39607V9.04376V10.0438H31.7213H38.3438C39.2148 10.0344 40.0789 10.199 40.8853 10.528C41.6918 10.857 42.4245 11.3437 43.0404 11.9596C43.6563 12.5755 44.143 13.3082 44.472 14.1147C44.801 14.9212 44.9657 15.7852 44.9563 16.6562V23.2787V24.2787H45.9563H46.6028C51.0119 24.2787 54.599 27.7742 54.599 32.07C54.599 36.4827 51.0565 40.0734 46.7016 40.0734H45.9563H44.9563V41.0734V47.6959C44.9563 51.3926 41.99 54.3999 38.3438 54.3999Z"
        stroke="#2E7A00" stroke-width="2" />
</svg>
